<?xml version="1.0" encoding="UTF-8" standalone="no"?><!DOCTYPE svg PUBLIC "-//W3C//DTD SVG 1.1//EN" "http://www.w3.org/Graphics/SVG/1.1/DTD/svg11.dtd"><svg width="100%" height="100%" viewBox="0 0 100 100" version="1.1" xmlns="http://www.w3.org/2000/svg" xmlns:xlink="http://www.w3.org/1999/xlink" xml:space="preserve" xmlns:serif="http://www.serif.com/" style="fill-rule:evenodd;clip-rule:evenodd;stroke-linejoin:round;stroke-miterlimit:2;"><rect id="Artboard1" x="0" y="0" width="100" height="100" style="fill:none;"/><clipPath id="_clip1"><rect x="0" y="0" width="100" height="100"/></clipPath><g clip-path="url(#_clip1)"><g><g id="bawah"><path d="M84.31,86.357l13.744,13.643l-48.054,-0l-0.155,-0c-13.199,-0.04 -25.201,-5.206 -34.084,-13.643l68.549,0Zm-18.56,11.105c-4.829,1.607 -9.987,2.494 -15.344,2.536c5.358,-0.042 10.516,-0.93 15.344,-2.536Zm-49.989,-11.105c-9.715,-9.086 -15.761,-22.021 -15.761,-36.357c0,-13.147 5.085,-25.115 13.431,-34.005l70.845,70.328l-0.037,0.034l-68.478,0Zm14.679,-41.186c10.795,-0 19.56,8.7 19.56,19.417c0,10.717 -8.765,19.417 -19.56,19.417c-10.795,0 -19.56,-8.7 -19.56,-19.417c0,-10.717 8.765,-19.417 19.56,-19.417Z" style="fill:url(#_Linear2);"/></g><g id="Atas"><path d="M49.95,13.643l-34.26,-0l-13.744,-13.643l48.054,-0c-5.749,-0 -11.274,0.973 -16.413,2.765c5.139,-1.792 10.664,-2.765 16.413,-2.765c13.26,-0 25.321,5.173 34.239,13.643l-7.438,-0c-3.504,-3.286 -8.23,-5.301 -13.426,-5.301c-5.195,-0 -9.921,2.015 -13.425,5.301l26.851,-0l-26.851,-0c-3.777,3.541 -6.135,8.557 -6.135,14.116c0,10.716 8.765,19.417 19.56,19.417c10.796,-0 19.56,-8.701 19.56,-19.417c0,-5.559 -2.358,-10.575 -6.134,-14.116l7.438,-0c9.715,9.086 15.761,22.021 15.761,36.357c-0,13.147 -5.085,25.115 -13.431,34.005l-70.845,-70.328l0.037,-0.034l34.189,-0Z" style="fill:url(#_Linear3);"/></g></g></g><defs><linearGradient id="_Linear2" x1="0" y1="0" x2="1" y2="0" gradientUnits="userSpaceOnUse" gradientTransform="matrix(98.0535,0,0,84.0051,1.42109e-14,57.9974)"><stop offset="0" style="stop-color:#00009b;stop-opacity:1"/><stop offset="1" style="stop-color:#00d8ff;stop-opacity:1"/></linearGradient><linearGradient id="_Linear3" x1="0" y1="0" x2="1" y2="0" gradientUnits="userSpaceOnUse" gradientTransform="matrix(98.0535,0,0,84.0051,1.9465,42.0026)"><stop offset="0" style="stop-color:#00d8ff;stop-opacity:1"/><stop offset="0.57" style="stop-color:#0042ba;stop-opacity:1"/><stop offset="1" style="stop-color:#00009b;stop-opacity:1"/></linearGradient></defs></svg>